# xmcd
#
# Track frame offsets: 
#        150
#        14302
#        14602
#        31066
#        55368
#        74598
#        98975
#        113295
#        130033
#        143394
#        162385
#
# Disc length: 2433 seconds
#
# Revision: 0
# Processed by: cddbd v1.5.2PL0 Copyright (c) Steve Scherf et al.
# Submitted via: ExactAudioCopy v1.3
#
DISCID=88097f0b
DTITLE=The Delta Saints - The Delta Saints
DYEAR=2011
DGENRE=Blues Rock
TTITLE0=A Bird Called Angola
TTITLE1=Good in White
TTITLE2=Company Of Thieves
TTITLE3=Steppin'
TTITLE4=Momma
TTITLE5=Pray On
TTITLE6=Voodoo Walk
TTITLE7=Callin' Me Home
TTITLE8=Swamp Groove
TTITLE9=3,000 Miles
TTITLE10=Train Song
EXTD=
EXTT0=
EXTT1=
EXTT2=
EXTT3=
EXTT4=
EXTT5=
EXTT6=
EXTT7=
EXTT8=
EXTT9=
EXTT10=
PLAYORDER=
